<svg width="31" height="24" viewBox="0 0 31 24" fill="none" xmlns="http://www.w3.org/2000/svg">
<rect y="24" width="24" height="31" rx="5" transform="rotate(-90 0 24)" fill="white"/>
<path d="M14.6771 7.32315C14.7003 7.34637 14.7188 7.37394 14.7313 7.40429C14.7439 7.43464 14.7504 7.46717 14.7504 7.50003C14.7504 7.53288 14.7439 7.56541 14.7313 7.59576C14.7188 7.62611 14.7003 7.65369 14.6771 7.6769L10.6039 11.75H21.0002C21.0665 11.75 21.1301 11.7764 21.177 11.8233C21.2239 11.8701 21.2502 11.9337 21.2502 12C21.2502 12.0663 21.2239 12.1299 21.177 12.1768C21.1301 12.2237 21.0665 12.25 21.0002 12.25H10.6039L14.6771 16.3232C14.7003 16.3464 14.7187 16.374 14.7313 16.4043C14.7439 16.4347 14.7503 16.4672 14.7503 16.5C14.7503 16.5329 14.7439 16.5654 14.7313 16.5958C14.7187 16.6261 14.7003 16.6537 14.6771 16.6769C14.6538 16.7001 14.6263 16.7186 14.5959 16.7311C14.5656 16.7437 14.533 16.7502 14.5002 16.7502C14.4673 16.7502 14.4348 16.7437 14.4045 16.7311C14.3741 16.7186 14.3465 16.7001 14.3233 16.6769L9.82332 12.1769C9.80008 12.1537 9.78164 12.1261 9.76906 12.0958C9.75648 12.0654 9.75 12.0329 9.75 12C9.75 11.9672 9.75648 11.9346 9.76906 11.9043C9.78164 11.8739 9.80008 11.8464 9.82332 11.8232L14.3233 7.32315C14.3465 7.29991 14.3741 7.28147 14.4045 7.26889C14.4348 7.25631 14.4673 7.24983 14.5002 7.24983C14.5331 7.24983 14.5656 7.25631 14.5959 7.26889C14.6263 7.28147 14.6539 7.29991 14.6771 7.32315Z" fill="#448439"/>
</svg>
